<svg width="43" height="44" viewBox="0 0 43 44" fill="none" xmlns="http://www.w3.org/2000/svg">
<path d="M21.5 3.96172C27.2445 3.96172 27.9248 3.9875 30.184 4.09062C32.2836 4.18516 33.4174 4.54609 34.1732 4.84688C35.1727 5.24219 35.8949 5.72344 36.6424 6.48828C37.3982 7.26172 37.8602 7.99219 38.2465 9.01484C38.5404 9.78828 38.8932 10.957 38.9855 13.0969C39.0863 15.4172 39.1115 16.1133 39.1115 21.9828C39.1115 27.8609 39.0863 28.557 38.9855 30.8688C38.8932 33.0172 38.5404 34.1773 38.2465 34.9508C37.8602 35.9734 37.3898 36.7125 36.6424 37.4773C35.8865 38.2508 35.1727 38.7234 34.1732 39.1188C33.4174 39.4195 32.2752 39.7805 30.184 39.875C27.9164 39.9781 27.2361 40.0039 21.5 40.0039C15.7555 40.0039 15.0752 39.9781 12.816 39.875C10.7164 39.7805 9.58262 39.4195 8.82676 39.1188C7.82734 38.7234 7.10508 38.2422 6.35762 37.4773C5.60176 36.7039 5.13984 35.9734 4.75352 34.9508C4.45957 34.1773 4.10684 33.0086 4.01445 30.8688C3.91367 28.5484 3.88848 27.8523 3.88848 21.9828C3.88848 16.1047 3.91367 15.4086 4.01445 13.0969C4.10684 10.9484 4.45957 9.78828 4.75352 9.01484C5.13984 7.99219 5.61016 7.25313 6.35762 6.48828C7.11348 5.71484 7.82734 5.24219 8.82676 4.84688C9.58262 4.54609 10.7248 4.18516 12.816 4.09062C15.0752 3.9875 15.7555 3.96172 21.5 3.96172ZM21.5 0C15.6631 0 14.9324 0.0257812 12.6396 0.128906C10.3553 0.232031 8.78477 0.610156 7.42422 1.15156C6.00488 1.71875 4.80391 2.46641 3.61133 3.69531C2.41035 4.91563 1.67969 6.14453 1.12539 7.58828C0.596289 8.98906 0.226758 10.5875 0.125977 12.925C0.0251953 15.2797 0 16.0273 0 22C0 27.9727 0.0251953 28.7203 0.125977 31.0664C0.226758 33.4039 0.596289 35.0109 1.12539 36.4031C1.67969 37.8555 2.41035 39.0844 3.61133 40.3047C4.80391 41.525 6.00488 42.2812 7.41582 42.8398C8.78477 43.3813 10.3469 43.7594 12.6313 43.8625C14.924 43.9656 15.6547 43.9914 21.4916 43.9914C27.3285 43.9914 28.0592 43.9656 30.352 43.8625C32.6363 43.7594 34.2068 43.3813 35.5674 42.8398C36.9783 42.2812 38.1793 41.525 39.3719 40.3047C40.5645 39.0844 41.3035 37.8555 41.8494 36.4117C42.3785 35.0109 42.748 33.4125 42.8488 31.075C42.9496 28.7289 42.9748 27.9813 42.9748 22.0086C42.9748 16.0359 42.9496 15.2883 42.8488 12.9422C42.748 10.6047 42.3785 8.99766 41.8494 7.60547C41.3203 6.14453 40.5896 4.91563 39.3887 3.69531C38.1961 2.475 36.9951 1.71875 35.5842 1.16016C34.2152 0.61875 32.6531 0.240625 30.3688 0.1375C28.0676 0.0257813 27.3369 0 21.5 0Z" fill="#020202"/>
<path d="M21.5 10.6992C15.4027 10.6992 10.4561 15.7609 10.4561 22C10.4561 28.2391 15.4027 33.3008 21.5 33.3008C27.5973 33.3008 32.5439 28.2391 32.5439 22C32.5439 15.7609 27.5973 10.6992 21.5 10.6992ZM21.5 29.3305C17.5443 29.3305 14.3361 26.0477 14.3361 22C14.3361 17.9523 17.5443 14.6695 21.5 14.6695C25.4557 14.6695 28.6639 17.9523 28.6639 22C28.6639 26.0477 25.4557 29.3305 21.5 29.3305Z" fill="#020202"/>
<path d="M35.559 10.2523C35.559 11.7132 34.4 12.8906 32.9807 12.8906C31.5529 12.8906 30.4023 11.7046 30.4023 10.2523C30.4023 8.79136 31.5613 7.61401 32.9807 7.61401C34.4 7.61401 35.559 8.79995 35.559 10.2523Z" fill="#020202"/>
</svg>
