<svg width="44" height="44" viewBox="0 0 44 44" fill="none" xmlns="http://www.w3.org/2000/svg">
<path d="M22 0C9.85 0 0 9.849 0 22C0 34.151 9.85 44 22 44C34.15 44 44 34.151 44 22C44 9.849 34.15 0 22 0ZM32.7333 31.7143C32.38 32.34 31.73 32.692 31.06 32.692C30.7467 32.692 30.4233 32.6137 30.1267 32.4487C27.38 30.9087 24.3867 29.9653 21.2233 29.645C18.0533 29.3273 14.9233 29.649 11.9167 30.609C10.9133 30.9293 9.83335 30.375 9.51335 29.37C9.19001 28.3633 9.74667 27.287 10.7533 26.965C14.26 25.8447 17.9167 25.4637 21.61 25.839C25.2967 26.2143 28.79 27.3143 31.9967 29.1117C32.92 29.6257 33.25 30.7917 32.7333 31.7143ZM35.3667 25.032C35.0267 25.6863 34.36 26.0617 33.67 26.0617C33.37 26.0617 33.07 25.993 32.7867 25.8447C29.41 24.086 25.7633 22.997 21.94 22.609C18.0866 22.2147 14.27 22.5583 10.59 23.6197C9.57334 23.9083 8.51335 23.327 8.22335 22.3107C7.93002 21.296 8.51666 20.236 9.52999 19.943C13.6833 18.7453 17.99 18.3617 22.3267 18.8017C26.6333 19.2403 30.7467 20.467 34.5567 22.4523C35.49 22.9407 35.8567 24.0953 35.3667 25.032ZM36.32 19.4727C36.0333 19.4727 35.7433 19.408 35.4667 19.272C31.46 17.274 27.15 16.0297 22.6533 15.5733C18.15 15.1127 13.67 15.4687 9.33333 16.6267C8.31333 16.8973 7.26666 16.2923 6.99333 15.2707C6.71999 14.2503 7.32668 13.2013 8.35002 12.929C13.1334 11.6517 18.08 11.2627 23.0433 11.7673C28 12.269 32.7533 13.6427 37.1733 15.847C38.12 16.3183 38.5033 17.468 38.0333 18.4127C37.7 19.085 37.0233 19.4727 36.32 19.4727Z" fill="#020202"/>
</svg>
