<svg width="55" height="56" viewBox="0 0 55 56" fill="none" xmlns="http://www.w3.org/2000/svg">
<path d="M54.4521 16.8001C54.4521 16.8001 53.915 12.9391 52.2607 11.2438C50.166 9.01257 47.8242 9.00164 46.75 8.87039C39.0586 8.30164 27.5107 8.30164 27.5107 8.30164H27.4893C27.4893 8.30164 15.9414 8.30164 8.25 8.87039C7.17578 9.00164 4.83398 9.01257 2.73926 11.2438C1.08496 12.9391 0.558594 16.8001 0.558594 16.8001C0.558594 16.8001 0 21.3391 0 25.8673V30.111C0 34.6391 0.547852 39.1782 0.547852 39.1782C0.547852 39.1782 1.08496 43.0391 2.72852 44.7344C4.82324 46.9657 7.57324 46.8891 8.79785 47.1298C13.2021 47.5563 27.5 47.6876 27.5 47.6876C27.5 47.6876 39.0586 47.6657 46.75 47.1079C47.8242 46.9766 50.166 46.9657 52.2607 44.7344C53.915 43.0391 54.4521 39.1782 54.4521 39.1782C54.4521 39.1782 55 34.6501 55 30.111V25.8673C55 21.3391 54.4521 16.8001 54.4521 16.8001ZM21.8174 35.2626V19.5235L36.6738 27.4204L21.8174 35.2626Z" fill="black"/>
</svg>
